<svg width="86" height="86" viewBox="0 0 86 86" fill="none" xmlns="http://www.w3.org/2000/svg">
<mask id="mask0_40_8549" style="mask-type:luminance" maskUnits="userSpaceOnUse" x="10" y="10" width="65" height="65">
<path d="M24.2092 10.5957L74.8017 24.307L61.1717 74.7716L10.5792 61.0603L24.2092 10.5957Z" fill="white"/>
</mask>
<g mask="url(#mask0_40_8549)">
<mask id="mask1_40_8549" style="mask-type:luminance" maskUnits="userSpaceOnUse" x="17" y="17" width="51" height="51">
<path d="M17.4816 36.0749L49.7836 17.5295L67.9479 49.1693L35.6458 67.7153L17.4816 36.0749Z" fill="white"/>
</mask>
<g mask="url(#mask1_40_8549)">
<mask id="mask2_40_8549" style="mask-type:luminance" maskUnits="userSpaceOnUse" x="10" y="10" width="65" height="65">
<path d="M74.8019 24.3098L24.2064 10.5957L10.5792 61.0574L61.1746 74.7715L74.8019 24.3098Z" fill="white"/>
</mask>
<g mask="url(#mask2_40_8549)">
<mask id="mask3_40_8549" style="mask-type:luminance" maskUnits="userSpaceOnUse" x="24" y="30" width="12" height="8">
<path d="M25.4203 30.605L35.0981 33.228L33.8701 37.7746L24.1924 35.1517L25.4203 30.605Z" fill="white"/>
</mask>
<g mask="url(#mask3_40_8549)">
<mask id="mask4_40_8549" style="mask-type:luminance" maskUnits="userSpaceOnUse" x="17" y="17" width="51" height="51">
<path d="M17.4815 36.0746L49.7835 17.5298L67.9483 49.1695L35.6462 67.7149L17.4815 36.0746Z" fill="white"/>
</mask>
<g mask="url(#mask4_40_8549)">
<mask id="mask5_40_8549" style="mask-type:luminance" maskUnits="userSpaceOnUse" x="17" y="17" width="51" height="51">
<path d="M49.8113 17.5132L17.5091 36.0585L35.6745 67.699L67.976 49.1535L49.8113 17.5132Z" fill="white"/>
</mask>
<g mask="url(#mask5_40_8549)">
<mask id="mask6_40_8549" style="mask-type:luminance" maskUnits="userSpaceOnUse" x="17" y="17" width="51" height="51">
<path d="M49.8113 17.5132L17.5091 36.0585L35.6745 67.699L67.976 49.1535L49.8113 17.5132Z" fill="white"/>
</mask>
<g mask="url(#mask6_40_8549)">
<path d="M34.6832 33.6235C34.5899 33.723 34.4679 33.7877 34.3737 33.8932C34.2484 34.027 34.068 34.0919 33.9421 34.2256C33.8121 34.3521 33.6362 34.4342 33.5256 34.5776C33.4354 34.6521 33.2888 34.6757 33.2413 34.7926C33.128 34.8639 33.0114 34.9246 32.9018 35.0006C32.8509 35.1048 32.724 35.1283 32.6424 35.2008C32.4573 35.399 32.1697 35.4625 31.9849 35.6596C31.8046 35.7946 31.5734 35.8678 31.4242 36.0376C31.1881 36.1655 30.9871 36.3452 30.7601 36.4891C30.732 36.5706 30.6483 36.6051 30.5691 36.6138C30.4728 36.6313 30.3753 36.6418 30.2769 36.644C29.9034 36.643 29.5212 36.5904 29.1838 36.4215C28.9591 36.3545 28.7314 36.278 28.5411 36.136C28.4224 36.0817 28.2909 36.0541 28.1837 35.9752C28.0945 35.9277 28.0117 35.8702 27.9357 35.8035C27.8615 35.6979 27.7461 35.6359 27.6524 35.5527C27.6063 35.5138 27.5613 35.4733 27.5131 35.4356C27.4655 35.3981 27.4085 35.352 27.3569 35.3085C27.2622 35.2312 27.1753 35.1455 27.0953 35.0525C27.008 34.9434 26.9144 34.8393 26.8256 34.731C26.7522 34.6797 26.7108 34.5984 26.6581 34.5294C26.5055 34.4026 26.4395 34.2009 26.3264 34.0417C26.1093 33.7529 25.9483 33.432 25.7676 33.1223C25.7158 33.0456 25.6779 32.9627 25.6535 32.8731C25.4876 32.5337 25.3042 32.1956 25.2355 31.8216C25.2367 31.6762 25.3634 31.5734 25.475 31.5016C25.7464 31.3458 26.021 31.178 26.3263 31.0898C26.3711 31.081 26.415 31.0708 26.4591 31.06L26.604 31.0538C26.7112 31.0441 26.8225 31.0257 26.9298 31.0493C27.0229 31.1009 27.1045 31.1673 27.1742 31.2483C27.2601 31.3288 27.3386 31.4158 27.421 31.4978C27.5398 31.5927 27.5811 31.7515 27.6926 31.8555C27.8814 32.144 28.0857 32.4232 28.2628 32.7165C28.3818 32.7973 28.4102 32.9562 28.5319 33.0267C28.5658 33.0765 28.5984 33.1265 28.6324 33.1757C28.7132 33.2271 28.7461 33.3307 28.8341 33.3736C28.8985 33.4766 28.9572 33.5871 29.0643 33.6549C29.1132 33.6922 29.1608 33.7321 29.2095 33.7705C29.3501 33.8529 29.4569 33.9765 29.5761 34.0857C29.6112 34.1173 29.6469 34.1516 29.6797 34.1869C29.8763 34.2808 30.0884 34.342 30.2846 34.4394C30.2873 34.4844 30.2566 34.5456 30.3014 34.5799C30.3604 34.5731 30.3565 34.4964 30.3776 34.4548C30.5506 34.4586 30.7174 34.5076 30.8842 34.5411C31.0914 34.5044 31.2981 34.454 31.5116 34.4873C31.6344 34.4468 31.7653 34.4448 31.8904 34.4209C31.9789 34.3914 32.0683 34.3676 32.1595 34.3506C32.3234 34.3083 32.4874 34.2722 32.6498 34.224C32.7997 34.1927 32.9446 34.1453 33.084 34.0822C33.1586 34.0631 33.2304 34.0364 33.2992 34.0022C33.3597 33.9922 33.419 33.9775 33.4769 33.9588C33.5736 33.9468 33.6514 33.8818 33.7479 33.8773L33.8714 33.8228C33.9805 33.8333 34.0644 33.7478 34.159 33.7095C34.3226 33.725 34.4276 33.5389 34.5928 33.5529C34.7019 33.5019 34.7992 33.4194 34.9181 33.4L34.8209 33.5004C34.7767 33.5437 34.7311 33.5848 34.6832 33.6235Z" fill="#111827"/>
</g>
</g>
</g>
</g>
<mask id="mask7_40_8549" style="mask-type:luminance" maskUnits="userSpaceOnUse" x="21" y="30" width="47" height="27">
<path d="M24.9381 30.6329L67.0197 42.0366L63.1772 56.2623L21.0956 44.8585L24.9381 30.6329Z" fill="white"/>
</mask>
<g mask="url(#mask7_40_8549)">
<mask id="mask8_40_8549" style="mask-type:luminance" maskUnits="userSpaceOnUse" x="17" y="17" width="51" height="51">
<path d="M17.4812 36.0746L49.7831 17.5298L67.9481 49.1697L35.646 67.715L17.4812 36.0746Z" fill="white"/>
</mask>
<g mask="url(#mask8_40_8549)">
<mask id="mask9_40_8549" style="mask-type:luminance" maskUnits="userSpaceOnUse" x="17" y="17" width="51" height="51">
<path d="M49.8112 17.5132L17.5091 36.0585L35.6744 67.699L67.976 49.1535L49.8112 17.5132Z" fill="white"/>
</mask>
<g mask="url(#mask9_40_8549)">
<mask id="mask10_40_8549" style="mask-type:luminance" maskUnits="userSpaceOnUse" x="17" y="17" width="51" height="51">
<path d="M49.8112 17.5132L17.5091 36.0585L35.6744 67.699L67.976 49.1535L49.8112 17.5132Z" fill="white"/>
</mask>
<g mask="url(#mask10_40_8549)">
<path d="M65.8209 46.0171C65.7934 46.1326 65.7541 46.2437 65.7032 46.3504C65.6012 46.5914 65.3547 46.7053 65.1942 46.901C65.1534 46.9453 65.109 46.9867 65.0624 47.0251C64.9531 47.1474 64.7901 47.2003 64.6758 47.3163C64.5842 47.4052 64.4488 47.4374 64.3731 47.5447C64.2095 47.6455 64.0443 47.7471 63.8712 47.8329C63.7403 47.8669 63.6222 47.9376 63.5037 48.0008C63.4046 47.9967 63.3265 48.0745 63.2283 48.0737C63.1592 48.0998 63.0953 48.1428 63.0186 48.1423C62.7905 48.1881 62.5848 48.31 62.3529 48.3449C62.3056 48.3517 62.261 48.3575 62.2158 48.3655C62.0713 48.4137 61.921 48.4467 61.7883 48.519L61.6821 48.5141C61.45 48.538 61.2374 48.6426 61.0141 48.7045C60.966 48.7007 60.9183 48.6976 60.871 48.6952L60.7437 48.7566C60.6519 48.7778 60.5618 48.8044 60.4732 48.8364L60.3405 48.8613L60.2351 48.8579C60.1215 48.9095 60.0033 48.947 59.8804 48.9696L59.7418 48.9978C59.6957 49.0069 59.6489 49.0163 59.6028 49.0253C59.5101 49.0432 59.4176 49.0624 59.324 49.0789C59.2236 49.1187 59.119 49.1438 59.0116 49.1547C58.964 49.167 58.9152 49.1771 58.8674 49.1857L58.7787 49.2114C58.6448 49.236 58.5145 49.2745 58.3876 49.3256C58.2941 49.3556 58.199 49.3777 58.1017 49.3919C58.042 49.3991 57.9822 49.4088 57.9225 49.4184C57.7526 49.4646 57.5886 49.5326 57.4093 49.532C57.3621 49.5315 57.3161 49.5332 57.2685 49.532C57.2118 49.5553 57.1555 49.5794 57.0973 49.5993C56.9621 49.6081 56.8273 49.6202 56.6918 49.6302C56.6335 49.6414 56.5751 49.6551 56.5164 49.6675C56.4577 49.6799 56.4039 49.6948 56.3471 49.7071C56.2852 49.7315 56.2211 49.7504 56.1557 49.7628C56.099 49.7813 56.0425 49.8016 55.9853 49.8199C55.8961 49.8111 55.8063 49.8046 55.7152 49.7983L55.6262 49.8388C55.5459 49.8471 55.4651 49.8572 55.3838 49.8647C55.3024 49.8722 55.2218 49.8841 55.1417 49.9005C54.9571 49.8923 54.7682 49.9315 54.5759 49.9562C54.498 49.9806 54.4178 49.9976 54.3366 50.007C54.2697 50.0067 54.2037 50.0097 54.137 50.018C54.0385 50.0159 53.9387 50.0012 53.8421 50.0285L53.7409 50.0416C53.6548 50.0392 53.5665 50.0319 53.4794 50.0267L53.3815 50.0408C53.2531 50.0361 53.1202 50.0296 52.9976 50.0763C52.8707 50.1317 52.7315 50.0964 52.6001 50.1026C52.3127 50.061 52.022 50.0879 51.7355 50.0472C51.6885 50.0504 51.6424 50.0551 51.5964 50.0593C51.4969 50.0704 51.397 50.076 51.2969 50.0759C50.912 50.0441 50.5288 49.9655 50.1414 49.9773C49.9005 49.9409 49.6598 49.8923 49.4157 49.8809C49.3318 49.8618 49.2517 49.8327 49.1754 49.7942C48.8841 49.8376 48.6031 49.7375 48.3206 49.6867C48.2274 49.6676 48.1484 49.605 48.0527 49.5975C47.7006 49.59 47.3664 49.4577 47.0406 49.3392C46.7379 49.3267 46.4604 49.2072 46.192 49.0767C46.1376 49.0822 46.0834 49.0872 46.029 49.0928C45.8499 48.9889 45.6472 48.9499 45.4512 48.895C45.3136 48.8355 45.1915 48.7275 45.0333 48.7307C44.8472 48.6846 44.6643 48.6289 44.4845 48.5641C44.3242 48.4021 44.0815 48.4678 43.8952 48.3633C43.7506 48.2909 43.5834 48.2843 43.4466 48.1968C43.3061 48.0911 43.1122 48.1443 42.9653 48.0442C42.7845 48.0284 42.6259 47.9215 42.4482 47.8856C42.2932 47.8154 42.117 47.8236 41.9583 47.7627C41.7791 47.6933 41.5837 47.6772 41.4102 47.5933C41.252 47.5805 41.0972 47.5484 40.9466 47.4984C40.7101 47.4841 40.5003 47.3504 40.2663 47.3386C40.124 47.3327 39.9875 47.2852 39.8464 47.2728C39.6685 47.2553 39.504 47.1591 39.3241 47.1651C39.0994 47.1687 38.8826 47.1272 38.6748 47.0407C38.4555 47.0471 38.242 46.9794 38.0222 46.9875L37.9385 47.0268C37.7279 46.8892 37.4648 46.96 37.2316 46.906C37.0414 46.8797 36.85 46.8352 36.6571 46.8597C36.4647 46.8347 36.2709 46.8535 36.0775 46.8391C36.024 46.8234 35.9691 46.8147 35.9132 46.8124C35.7327 46.7888 35.5523 46.7878 35.3718 46.8096C35.2356 46.836 35.1046 46.7679 34.9686 46.787C34.8928 46.7923 34.8192 46.7846 34.7459 46.7648C34.6801 46.7672 34.6138 46.7714 34.5461 46.7764C34.4036 46.7667 34.2607 46.7427 34.1184 46.7669C34.0198 46.7746 33.922 46.7837 33.8212 46.7976C33.6668 46.7933 33.5141 46.7759 33.3606 46.773C33.1677 46.8092 32.9732 46.7737 32.7792 46.7704C32.5666 46.7589 32.3577 46.8449 32.1428 46.8032L32.0436 46.8176C31.931 46.8135 31.8191 46.8046 31.7063 46.7944C31.6122 46.815 31.5171 46.8187 31.4215 46.8063C31.3419 46.8143 31.2633 46.8256 31.1833 46.8395C31.0971 46.8377 31.0076 46.8208 30.9249 46.8587C30.788 46.8308 30.6495 46.8221 30.5105 46.8318C30.3654 46.8158 30.2196 46.8095 30.0739 46.8119C30.009 46.8244 29.9435 46.8349 29.8767 46.8433C29.7774 46.833 29.678 46.83 29.5781 46.8337C29.2813 46.8129 28.9865 46.7594 28.6883 46.7462C28.4749 46.6829 28.2491 46.6837 28.0399 46.6049C27.8048 46.5332 27.5494 46.4818 27.361 46.3146C27.2912 46.2815 27.2194 46.2541 27.1448 46.232L27.0881 46.1576C27.0357 46.1194 26.989 46.0761 26.9373 46.0375L26.8539 45.9823C26.722 45.8764 26.6362 45.7278 26.5308 45.599C26.3458 45.3054 26.1406 45.0045 26.0779 44.6586C26.0384 44.5704 25.9731 44.4894 25.9688 44.3892C25.9438 44.2564 25.8794 44.1308 25.8728 43.9956C25.8652 43.9351 25.8555 43.8753 25.8443 43.8169C25.8208 43.6034 25.7155 43.3855 25.7774 43.1723C26.0718 43.3726 26.366 43.6171 26.7305 43.6649C26.7789 43.7179 26.8363 43.7581 26.9027 43.7853C27.081 43.849 27.2518 43.9334 27.4318 43.9883C27.7241 43.9962 27.9777 44.1861 28.2746 44.1724C28.334 44.1959 28.393 44.2211 28.4503 44.2477C28.6695 44.1805 28.8599 44.3427 29.0783 44.3349C29.3283 44.4107 29.5911 44.3503 29.8375 44.4306C30.1387 44.4987 30.4525 44.486 30.7513 44.5608C31.1069 44.5121 31.4619 44.6224 31.816 44.6403C31.8828 44.632 31.9497 44.628 32.0142 44.6258L32.114 44.6203C32.2317 44.6239 32.3477 44.6406 32.4619 44.6703C32.717 44.6841 32.9705 44.7171 33.2241 44.741C33.6259 44.7054 34.0208 44.7817 34.4224 44.8038C34.5456 44.8231 34.6674 44.8137 34.7859 44.7757C35.0427 44.8944 35.3387 44.8591 35.6122 44.9025C35.7869 44.9769 35.9768 44.8931 36.1561 44.9392C36.2307 44.9564 36.3073 44.9642 36.3843 44.9635C36.6816 44.9759 36.9681 45.0824 37.2696 45.0541C37.4872 45.0405 37.6832 45.1569 37.8966 45.1588C38.0339 45.1942 38.1768 45.2182 38.3161 45.1803C38.5214 45.2691 38.7485 45.2796 38.9633 45.3354C39.1456 45.3454 39.316 45.4199 39.4981 45.4287C39.6714 45.4787 39.8519 45.4932 40.0245 45.5437C40.1976 45.6016 40.3737 45.6438 40.5541 45.67C40.7912 45.757 41.0542 45.7618 41.2749 45.8936C41.4303 45.9259 41.5887 45.9448 41.733 46.0159C41.9472 46.0401 42.1376 46.1452 42.3345 46.2195C42.5789 46.2863 42.8108 46.3861 43.0496 46.4692C43.3139 46.5304 43.5376 46.69 43.7875 46.7891C43.9447 46.86 44.1143 46.901 44.2675 46.9825L44.3269 47.0607C44.4063 47.081 44.493 47.0897 44.5613 47.1396C44.7133 47.2779 44.9288 47.2902 45.0968 47.4009C45.404 47.5266 45.6735 47.7281 45.9849 47.8451C46.1348 47.9091 46.2751 48.0178 46.4472 48.0042L46.5452 48.099C46.6776 48.1686 46.8148 48.2273 46.9565 48.2762C47.1426 48.3881 47.3734 48.3665 47.5578 48.4804C47.6982 48.5547 47.8473 48.6307 48.0095 48.6446C48.1771 48.6543 48.3394 48.6909 48.4958 48.7536C48.6403 48.826 48.8108 48.8205 48.9536 48.9041C49.1679 48.8798 49.3914 48.874 49.5901 48.9715C49.8005 49.007 50.0127 49.027 50.2261 49.0313C50.6383 49.0164 51.0464 49.087 51.4544 49.1306C51.6293 49.0772 51.8086 49.0575 51.9909 49.0719C52.2045 49.0437 52.4245 49.1439 52.6324 49.057C52.3809 49.0324 52.1306 48.9917 51.8832 48.9566L51.7895 48.9804C51.6942 48.9576 51.5975 48.9425 51.5002 48.934C51.3605 48.9367 51.2263 48.9101 51.0974 48.8549C50.9499 48.7774 50.7783 48.8004 50.6183 48.8081C50.3272 48.8116 50.08 48.5958 49.7866 48.6263C49.6058 48.5558 49.3997 48.575 49.2321 48.4693C48.924 48.2696 48.5148 48.3167 48.2348 48.0632C48.2143 48.0502 48.1724 48.0254 48.1512 48.0129C48.0728 48.0051 48.0009 47.9801 47.9351 47.9371C47.7123 47.8263 47.4698 47.739 47.2778 47.5825C47.0354 47.5813 46.9354 47.3052 46.7216 47.2252L46.6377 47.1692L46.5543 47.1141L46.471 47.0583C46.3337 46.9725 46.2087 46.871 46.0966 46.7533C45.9931 46.7019 45.896 46.6406 45.8054 46.5687C45.7663 46.5199 45.724 46.474 45.6784 46.431C45.5857 46.3056 45.4592 46.2142 45.3426 46.1155C45.1361 45.9698 44.9944 45.7568 44.8033 45.595C44.6035 45.4517 44.4813 45.2237 44.2843 45.0725C44.2087 45.0361 44.1503 44.9815 44.1083 44.9093C44.051 44.8575 43.9993 44.801 43.9516 44.7408C43.8328 44.6391 43.7196 44.5322 43.612 44.4188C43.3431 44.1559 43.0595 43.9063 42.8049 43.6289C42.7677 43.5986 42.7317 43.5679 42.6975 43.5396C42.6475 43.4836 42.5934 43.4314 42.5364 43.3828C42.5223 43.3667 42.4936 43.3343 42.4791 43.3175C42.4288 43.2805 42.3815 43.2418 42.3311 43.2054C42.2078 43.0976 42.0818 42.9928 41.952 42.893C41.8899 42.7975 41.8096 42.7217 41.7114 42.6643C41.6962 42.6454 41.6661 42.6065 41.6515 42.5878C41.6107 42.5657 41.5693 42.544 41.5284 42.5225L41.4465 42.4616C41.39 42.4044 41.3272 42.3548 41.2584 42.3135L41.169 42.2554C41.1368 42.2221 41.1039 42.1892 41.0708 42.1569C40.9747 42.0804 40.8589 42.0404 40.7496 41.9899C40.7225 41.9469 40.6951 41.905 40.6675 41.8637C40.5781 41.826 40.5054 41.7675 40.4491 41.689C40.4281 41.6735 40.3874 41.6421 40.367 41.6268C40.2942 41.607 40.225 41.5791 40.159 41.5433C40.1203 41.5138 40.0835 41.4884 40.0445 41.4619C39.9724 41.4128 39.8999 41.3649 39.8293 41.3144C39.6647 41.2022 39.4602 41.172 39.3109 41.0399C39.2399 40.9819 39.1837 40.8985 39.0895 40.8785C38.9033 40.8237 38.7275 40.7441 38.5633 40.64C38.4667 40.5923 38.3628 40.5653 38.2735 40.5067C38.1391 40.3898 37.9482 40.4001 37.8019 40.3045C37.6019 40.2712 37.4326 40.1473 37.2343 40.1077C37.0459 40.0677 36.8856 39.9419 36.6919 39.9219C36.5553 39.904 36.4428 39.8065 36.3002 39.8084C36.1142 39.8121 35.9593 39.6914 35.778 39.6712C35.5882 39.6456 35.41 39.561 35.2168 39.5572C34.938 39.4946 34.6587 39.4386 34.3776 39.3894C34.2448 39.3485 34.1084 39.3257 33.9696 39.3207C33.6021 39.325 33.252 39.1643 32.8847 39.1976C32.693 39.1997 32.5064 39.1485 32.3184 39.1185C32.1433 39.1159 31.9705 39.1004 31.7938 39.1036C31.5169 39.0956 31.2462 39.0191 30.9684 39.0121C30.8517 39.0075 30.7402 38.9742 30.6221 38.9631C30.5092 38.9055 30.3836 38.9563 30.2656 38.9698C30.0997 38.9218 29.9302 38.8961 29.7576 38.8936C29.5909 38.83 29.407 38.7328 29.2283 38.7913C28.9663 38.7646 28.7646 38.5735 28.5061 38.5385C28.3291 38.4997 28.1762 38.3968 27.9988 38.3616C27.835 38.34 27.7385 38.1897 27.5908 38.1312C27.388 38.0559 27.2138 37.9226 27.0223 37.8259C26.8563 37.7237 26.6602 37.6804 26.5056 37.5543L26.4192 37.5008C26.3721 37.4339 26.3249 37.3584 26.2404 37.3367C26.0543 37.2703 25.8792 37.1835 25.714 37.076C25.5401 36.9686 25.3391 36.9166 25.1663 36.8052C24.9486 36.7555 24.7443 36.6632 24.5404 36.5735C24.4906 36.5533 24.4515 36.5205 24.4224 36.4758C24.429 36.3786 24.423 36.2823 24.4039 36.1867C24.3558 35.9985 24.3772 35.8057 24.358 35.6148C24.3641 35.483 24.3832 35.3487 24.3468 35.2195C24.2871 35.0011 24.3569 34.7771 24.3429 34.5557C24.3506 34.2768 24.3952 33.9981 24.3577 33.7205C24.3704 33.6231 24.3673 33.5233 24.3964 33.4291C24.5008 33.1359 24.5343 32.8345 24.4961 32.5253C24.54 32.4948 24.5885 32.4791 24.642 32.4788C24.8138 32.4461 24.8648 32.6714 25.0054 32.731C25.2841 33.1717 25.5023 33.652 25.8254 34.0623C25.8999 34.1575 25.9237 34.3035 26.0418 34.3558C26.1058 34.4556 26.1631 34.5596 26.2283 34.6621C26.3321 34.7056 26.3577 34.8269 26.4242 34.9064C26.5262 34.9814 26.5939 35.0926 26.6841 35.1797C26.7221 35.2097 26.7594 35.2401 26.7945 35.2693C26.9718 35.4594 27.1176 35.6888 27.3395 35.8301C27.3734 35.8615 27.4081 35.8924 27.4442 35.9225C27.5926 36.0217 27.7328 36.1353 27.8865 36.2261C28.0505 36.2952 28.2022 36.3842 28.3425 36.493C28.4045 36.6321 28.5647 36.6239 28.686 36.6709C28.9675 36.7619 29.2349 36.8983 29.5226 36.9689C29.7903 36.9701 30.0453 37.0706 30.3144 37.0913C30.4514 37.1032 30.5572 37.2099 30.6975 37.2136C30.8167 37.2231 30.9332 37.2467 31.047 37.2831C31.165 37.2511 31.2882 37.266 31.4085 37.2599L31.5082 37.2482C31.6071 37.2529 31.7067 37.2596 31.8056 37.2667C31.8997 37.2529 31.9901 37.2276 32.077 37.1903C32.2948 37.1829 32.4943 37.0746 32.7105 37.0502C32.8991 37.0257 33.0637 36.9191 33.2518 36.8895C33.4457 36.8271 33.6536 36.8244 33.8469 36.7594C33.9208 36.7247 33.9987 36.7071 34.0803 36.7077C34.3102 36.6439 34.5449 36.592 34.7515 36.469C34.8339 36.4778 34.9011 36.4204 34.9735 36.3933C35.1014 36.3979 35.1921 36.2761 35.32 36.2782C35.39 36.2486 35.457 36.2077 35.5362 36.2058L35.6235 36.1785C35.6861 36.1721 35.7457 36.1562 35.8024 36.1304C35.9757 36.0944 36.1131 35.9681 36.2844 35.9254C36.3946 35.8974 36.4838 35.806 36.6006 35.8063C36.744 35.7327 36.8816 35.6489 37.0276 35.5815C37.1826 35.5632 37.2992 35.4454 37.4438 35.3948C37.5668 35.3876 37.662 35.2947 37.7718 35.2476C38.2513 35.0314 38.7074 34.7653 39.1642 34.503L39.2487 34.5794C39.284 34.608 39.3184 34.6376 39.3514 34.6681C39.4198 34.7241 39.4948 34.7696 39.5763 34.8046C39.6587 34.8454 39.7439 34.8783 39.8324 34.9035L39.8729 34.9151C39.8867 34.9392 39.9181 34.9845 39.9333 35.0077C40.0345 35.0677 40.1286 35.1381 40.215 35.2187C40.3022 35.2897 40.4097 35.333 40.4876 35.4156C40.5429 35.4545 40.599 35.4925 40.6564 35.5302C40.7419 35.5755 40.8326 35.6154 40.8971 35.6907C40.9769 35.7799 41.1028 35.8073 41.1768 35.9023C41.2361 35.9442 41.2989 35.9803 41.3645 36.0104C41.4435 36.105 41.5547 36.1621 41.6397 36.2503C41.661 36.2647 41.7035 36.2941 41.7248 36.3085C41.8214 36.3992 41.9421 36.4553 42.0545 36.5238C42.084 36.5441 42.1136 36.5644 42.1421 36.5863C42.314 36.7122 42.4749 36.856 42.6773 36.933C42.7837 37.0123 42.8702 37.1132 42.974 37.1954C43.1577 37.389 43.4405 37.4528 43.6279 37.6462C43.7425 37.7547 43.8866 37.8196 44.03 37.8781C44.0705 37.9217 44.1079 37.9675 44.145 38.0144C44.2343 38.0866 44.3258 38.1575 44.4197 38.2241L44.5008 38.2811C44.6045 38.3271 44.7001 38.3874 44.788 38.4604C44.9781 38.5759 45.1346 38.7382 45.3386 38.834L45.4574 38.9086C45.5585 38.9895 45.6527 39.0778 45.7401 39.1728C45.8093 39.2032 45.8776 39.2328 45.946 39.2618C46.0064 39.3132 46.0669 39.3646 46.129 39.4147C46.1683 39.4376 46.2067 39.4615 46.2486 39.484C46.2975 39.5304 46.3511 39.5732 46.4005 39.618C46.4829 39.652 46.5638 39.6893 46.6432 39.7298C46.7255 39.8486 46.8305 39.9423 46.9586 40.0096L47.042 40.0648L47.2088 40.1757C47.2796 40.2275 47.3531 40.2739 47.4296 40.3161C47.4964 40.3625 47.5589 40.4133 47.6174 40.4697L47.6978 40.5271C47.7188 40.5402 47.7605 40.5681 47.7812 40.5823L47.8647 40.6375L47.948 40.6933L48.0342 40.7474C48.11 40.8036 48.1824 40.8632 48.2584 40.9207C48.2745 40.9386 48.3061 40.9742 48.322 40.9926L48.4089 41.0463C48.4477 41.071 48.488 41.0948 48.5264 41.1212C48.5978 41.1707 48.6711 41.2182 48.7434 41.2667C48.764 41.2815 48.8056 41.3094 48.8267 41.3225C48.9253 41.3805 49.0163 41.4488 49.0996 41.5274L49.1829 41.5831L49.2619 41.6408C49.3495 41.6898 49.4457 41.7275 49.5157 41.8049C49.5371 41.8193 49.5793 41.8473 49.599 41.8607L49.6794 41.9181L49.8058 41.9874C49.8183 42.0092 49.8477 42.0504 49.8623 42.0716C49.9955 42.1612 50.1327 42.2469 50.2576 42.349C50.3336 42.4182 50.4185 42.4725 50.5129 42.5123L50.605 42.5741C50.6912 42.6485 50.7822 42.7168 50.8777 42.7796C50.9705 42.8367 51.0678 42.8858 51.1685 42.9272C51.2524 43.0422 51.3533 43.1396 51.4707 43.2194C51.5269 43.2549 51.5828 43.2916 51.6376 43.3298L51.757 43.4089C51.7772 43.423 51.8188 43.4508 51.8404 43.4641C51.9237 43.5198 52.0072 43.575 52.0925 43.6345C52.1406 43.6751 52.1898 43.7137 52.2429 43.749C52.319 43.7881 52.3871 43.8366 52.4484 43.8963C52.496 43.943 52.5464 43.9862 52.601 44.0255L52.7148 44.0115C52.8437 43.953 52.9795 43.9259 53.1216 43.9299C53.3351 43.9405 53.5306 43.8858 53.708 43.7661C53.7954 43.7043 53.9173 43.674 53.9649 43.5707C54.0736 43.4981 54.1878 43.435 54.3046 43.3757C54.3669 43.3815 54.4304 43.3833 54.4934 43.3844C54.5207 43.4656 54.5625 43.5384 54.6188 43.6028L54.6914 43.5549C54.6416 43.4682 54.5923 43.3823 54.543 43.2964C54.6421 43.239 54.7416 43.1824 54.8383 43.1225C54.8418 43.0755 54.8454 43.0279 54.8486 42.9821C54.8391 42.9512 54.8208 42.8891 54.8115 42.8577C54.7429 42.8452 54.713 42.7763 54.6701 42.7327C54.5433 42.6399 54.506 42.4706 54.3853 42.3714C54.4587 42.4067 54.5349 42.4341 54.6128 42.4552C54.6982 42.5011 54.7764 42.5574 54.847 42.6238C54.8822 42.6549 54.9166 42.687 54.9502 42.7194C55.0249 42.7796 55.0947 42.8446 55.1598 42.9152C55.2669 42.967 55.3733 43.0216 55.4847 43.0641C55.6992 43.0552 55.968 43.141 56.1097 42.9236C56.2047 42.8448 56.2936 42.7595 56.3755 42.6679C56.4503 42.5911 56.524 42.5139 56.5941 42.4321L56.6679 42.3728C56.6913 42.3293 56.7155 42.2873 56.7398 42.2453C56.8011 42.1888 56.8544 42.1258 56.8996 42.0562C56.9486 42.0093 56.9916 41.957 57.0285 41.9C57.0905 41.9278 57.1605 41.9437 57.2086 41.9955C57.3607 42.1609 57.5766 42.2489 57.7818 42.3267C57.9549 42.4185 58.1394 42.4888 58.3006 42.6019C58.4509 42.7103 58.64 42.7314 58.8022 42.8159C59.0315 42.9229 59.2675 43.0115 59.5106 43.0811C59.6686 43.197 59.8606 43.2417 60.0369 43.3288C60.1318 43.3779 60.2409 43.3792 60.3453 43.3841C60.613 43.4579 60.8407 43.6549 61.1251 43.66C61.284 43.6748 61.431 43.7429 61.589 43.7654C61.7363 43.7845 61.8685 43.8639 62.0157 43.8903C62.1245 43.8927 62.2322 43.8943 62.3411 43.8918C62.4829 43.9653 62.6475 43.9773 62.8029 43.9979C63.0028 44.0385 63.2078 44.0418 63.4107 44.0575C63.5604 44.0747 63.7126 44.0643 63.8551 44.1213C63.942 44.1228 64.0306 44.1271 64.1193 44.1241C64.2369 44.1326 64.3377 44.2029 64.453 44.22C64.7127 44.2234 64.9434 44.3708 65.1602 44.5033C65.242 44.5783 65.323 44.6538 65.4071 44.727C65.5231 44.8826 65.6099 45.0574 65.709 45.225C65.7391 45.2774 65.7721 45.335 65.7657 45.3996C65.8648 45.5654 65.8898 45.7597 65.8876 45.9497L65.8209 46.0171ZM28.1225 38.2427L28.0966 38.1976L28.07 38.2574C28.1351 38.2713 28.1998 38.2864 28.2649 38.3003C28.2316 38.244 28.1952 38.1831 28.1225 38.2427Z" fill="#111827"/>
</g>
</g>
</g>
</g>
<mask id="mask11_40_8549" style="mask-type:luminance" maskUnits="userSpaceOnUse" x="35" y="27" width="7" height="8">
<path d="M36.9362 27.5826L41.9225 28.9341L40.4963 34.215L35.5101 32.8635L36.9362 27.5826Z" fill="white"/>
</mask>
<g mask="url(#mask11_40_8549)">
<mask id="mask12_40_8549" style="mask-type:luminance" maskUnits="userSpaceOnUse" x="17" y="17" width="51" height="51">
<path d="M17.4814 36.0745L49.7833 17.5299L67.9483 49.1697L35.6462 67.7149L17.4814 36.0745Z" fill="white"/>
</mask>
<g mask="url(#mask12_40_8549)">
<mask id="mask13_40_8549" style="mask-type:luminance" maskUnits="userSpaceOnUse" x="17" y="17" width="51" height="51">
<path d="M49.8112 17.5133L17.5091 36.0585L35.6745 67.699L67.976 49.1536L49.8112 17.5133Z" fill="white"/>
</mask>
<g mask="url(#mask13_40_8549)">
<mask id="mask14_40_8549" style="mask-type:luminance" maskUnits="userSpaceOnUse" x="17" y="17" width="51" height="51">
<path d="M49.8112 17.5133L17.5091 36.0585L35.6745 67.699L67.976 49.1536L49.8112 17.5133Z" fill="white"/>
</mask>
<g mask="url(#mask14_40_8549)">
<path d="M41.5438 29.9152C41.4939 29.9841 41.4364 30.0466 41.3716 30.1022C41.2699 30.1829 41.1598 30.249 41.0402 30.3002C41.039 30.3663 41.0359 30.4325 41.0297 30.4984L40.9598 30.4161L40.8944 30.4532C40.9082 30.4772 40.9397 30.5245 40.9548 30.5482C40.8948 30.6113 40.8344 30.6755 40.7798 30.7431L40.7522 30.7793C40.6849 30.8465 40.6114 30.9071 40.5327 30.9615C40.1383 31.1996 39.7375 31.4292 39.3435 31.668C39.2744 31.7784 39.1192 31.7929 39.0569 31.9076L38.9884 31.9677C38.9075 32.1032 38.7716 32.1851 38.6716 32.305C38.6081 32.4218 38.5233 32.5378 38.5213 32.6775C38.5156 32.7713 38.5509 32.8614 38.5666 32.9536C38.5815 32.9847 38.6115 33.0469 38.6263 33.0786L38.721 33.1443C38.608 33.1099 38.545 32.9994 38.4391 32.9522C38.2862 32.8763 38.1242 32.8226 37.9775 32.733L37.8868 32.682C37.8713 32.6618 37.8421 32.6219 37.8274 32.6013C37.7161 32.5287 37.6198 32.4368 37.5135 32.3569C37.3122 32.2188 37.0952 32.1027 36.9095 31.9411C36.78 31.8722 36.6011 31.74 36.4941 31.9177L36.4512 32.0106C36.3804 32.1199 36.3041 32.2272 36.1886 32.293L36.1251 32.3754L36.0575 32.4961C35.9083 32.575 35.7711 32.6755 35.6203 32.7515C35.6488 32.7119 35.6837 32.6715 35.7148 32.6338C35.762 32.4135 35.8785 32.2164 35.9259 31.9955C35.9909 31.8139 36.0134 31.5918 36.1873 31.476C36.1926 31.4018 36.2048 31.327 36.2141 31.2539C36.2315 31.1165 36.3027 30.9962 36.3438 30.8647C36.3946 30.7358 36.4032 30.5899 36.4903 30.477C36.5403 30.1505 36.6342 29.8371 36.7711 29.5372C36.8536 29.2318 36.929 28.914 37.0671 28.6255C37.1283 28.5492 37.1983 28.4834 37.2784 28.4282C37.362 28.3143 37.529 28.3356 37.6417 28.253C37.7707 28.2351 37.8966 28.1788 38.0268 28.2043C38.2423 28.1624 38.4595 28.1549 38.6779 28.1815C38.7671 28.2131 38.8585 28.2231 38.9527 28.2111C39.1341 28.1883 39.3021 28.2265 39.4567 28.3256C39.5699 28.355 39.6948 28.3434 39.7878 28.427C40.0083 28.4665 40.1924 28.5926 40.3821 28.7006C40.5167 28.9081 40.78 28.937 40.9506 29.0976C41.0921 29.2043 41.1887 29.3633 41.3518 29.4425C41.4085 29.4942 41.4551 29.5541 41.4911 29.6211L41.5673 29.6645C41.569 29.7197 41.5796 29.7736 41.5995 29.8251L41.5438 29.9152Z" fill="#111827"/>
</g>
</g>
</g>
</g>
<mask id="mask15_40_8549" style="mask-type:luminance" maskUnits="userSpaceOnUse" x="23" y="37" width="14" height="9">
<path d="M24.4085 37.2598L36.4321 40.5184L35.1645 45.2115L23.141 41.9529L24.4085 37.2598Z" fill="white"/>
</mask>
<g mask="url(#mask15_40_8549)">
<mask id="mask16_40_8549" style="mask-type:luminance" maskUnits="userSpaceOnUse" x="17" y="17" width="51" height="51">
<path d="M17.481 36.0746L49.7829 17.5299L67.9479 49.1698L35.6459 67.7151L17.481 36.0746Z" fill="white"/>
</mask>
<g mask="url(#mask16_40_8549)">
<mask id="mask17_40_8549" style="mask-type:luminance" maskUnits="userSpaceOnUse" x="17" y="17" width="51" height="51">
<path d="M49.8109 17.5133L17.5089 36.0585L35.6743 67.699L67.9758 49.1537L49.8109 17.5133Z" fill="white"/>
</mask>
<g mask="url(#mask17_40_8549)">
<mask id="mask18_40_8549" style="mask-type:luminance" maskUnits="userSpaceOnUse" x="17" y="17" width="51" height="51">
<path d="M49.8109 17.5133L17.5089 36.0585L35.6743 67.699L67.9758 49.1537L49.8109 17.5133Z" fill="white"/>
</mask>
<g mask="url(#mask18_40_8549)">
<path d="M26.3439 38.3071C26.5228 38.4048 26.6952 38.5222 26.8963 38.5675C26.9465 38.5909 26.9954 38.6146 27.0437 38.6382C27.0959 38.6861 27.1498 38.7327 27.2041 38.7751L27.2634 38.7647C27.2498 38.8151 27.2233 38.8565 27.1835 38.89L27.1608 38.9127C27.1768 38.9601 27.236 38.9436 27.2724 38.9522C27.2777 38.9032 27.284 38.8545 27.2896 38.8068C27.3251 38.8276 27.3965 38.8684 27.4328 38.8887L27.5132 38.9394C27.7427 38.9407 27.9383 39.0767 28.1488 39.1485C28.1972 39.1721 28.2446 39.1966 28.293 39.2202C28.883 39.4299 29.4849 39.5955 30.0982 39.7168C30.4973 39.8527 30.9303 39.8723 31.3161 40.0482C31.4467 40.0952 31.5941 40.0706 31.7202 40.1337C31.8715 40.2177 32.0518 40.2125 32.2032 40.2984C32.5048 40.3924 32.8136 40.4645 33.103 40.5945C33.3717 40.6625 33.6135 40.803 33.8792 40.8818C34.018 40.9643 34.1841 40.957 34.3299 41.018C34.3872 41.0766 34.4535 41.1204 34.5298 41.1497C34.7801 41.2403 34.9983 41.4267 35.2664 41.4606C35.4902 41.5311 35.644 41.7308 35.8803 41.7776C35.9004 41.8126 35.9447 41.8805 35.9661 41.9152C35.9079 41.9486 35.8482 41.9786 35.7874 42.01C35.7241 42.0144 35.6629 42.0273 35.6026 42.0479C35.543 42.0637 35.4852 42.0843 35.4265 42.1059C35.2549 42.1313 35.0871 42.1701 34.9217 42.2224C34.6825 42.2799 34.4591 42.4106 34.2075 42.4156L34.1194 42.4482C33.9949 42.4428 33.8792 42.4932 33.7592 42.5209L33.6684 42.5479C33.6204 42.5546 33.5735 42.5622 33.5269 42.5711C33.4167 42.583 33.3087 42.6073 33.2033 42.6426C33.1574 42.6511 33.1116 42.659 33.0648 42.666C33.0186 42.6731 32.9738 42.6819 32.9299 42.6921C32.6914 42.7105 32.466 42.7914 32.2372 42.8536C32.177 42.86 32.1191 42.8695 32.0577 42.8763L31.8984 42.8927C31.7234 42.8803 31.5634 42.9747 31.3887 42.9704C31.258 42.9626 31.1315 43.0009 31.0044 43.0279C30.9262 43.0418 30.8471 43.0504 30.7676 43.0578C30.668 43.0579 30.5688 43.0679 30.4714 43.087C30.3796 43.1014 30.2882 43.1191 30.1976 43.1406C30.143 43.1265 30.0876 43.1151 30.0317 43.1061C29.9651 43.1182 29.899 43.131 29.8309 43.1439C29.6235 43.1701 29.4137 43.1526 29.2051 43.144C29.1068 43.153 29.0081 43.1546 28.9097 43.1476C28.8423 43.1514 28.7753 43.156 28.7099 43.1592C28.6363 43.154 28.5623 43.1505 28.4881 43.152C28.3051 43.1515 28.1246 43.1278 27.9471 43.0816C27.769 43.0401 27.5846 43.0608 27.4032 43.0448C27.1928 42.9386 26.9646 42.8799 26.7477 42.7909C26.649 42.7876 26.5586 42.7581 26.4771 42.7028C26.4122 42.6631 26.3448 42.6282 26.2763 42.5949C26.1999 42.5386 26.1296 42.4759 26.0648 42.4061C25.9983 42.361 25.9349 42.3112 25.8754 42.2563C25.8222 42.205 25.775 42.148 25.734 42.0858C25.5784 41.9631 25.5215 41.7528 25.4147 41.5905C25.4378 41.4412 25.2629 41.347 25.2819 41.2015C25.2466 41.1182 25.1857 41.0433 25.181 40.9492C25.1583 40.892 25.1412 40.8326 25.1305 40.772C25.1013 40.7026 25.0761 40.6318 25.0551 40.5597C25.0373 40.5026 25.0186 40.4465 24.9991 40.3914C24.9795 40.316 24.9519 40.2428 24.929 40.1683L24.9358 40.0613C24.909 40.0036 24.8876 39.9438 24.8717 39.8823C24.8562 39.8234 24.8388 39.7651 24.8252 39.7061C24.8045 39.628 24.787 39.5494 24.7705 39.4693C24.7636 39.4085 24.7526 39.3489 24.7435 39.2893C24.7183 39.2007 24.6983 39.1086 24.6696 39.0215L24.6698 38.9182C24.6576 38.6991 24.5595 38.4979 24.526 38.2829C24.5221 38.1951 24.5167 38.1082 24.5101 38.021C24.508 37.9743 24.5055 37.9287 24.5025 37.883C24.4917 37.7295 24.5196 37.576 24.4897 37.4252C24.6397 37.4296 24.7772 37.4964 24.9224 37.5253C24.9751 37.5691 25.0275 37.614 25.0775 37.6614C25.4909 37.7851 25.874 37.9941 26.2318 38.2349C26.2688 38.2597 26.3058 38.282 26.3439 38.3071Z" fill="#111827"/>
</g>
</g>
</g>
</g>
<mask id="mask19_40_8549" style="mask-type:luminance" maskUnits="userSpaceOnUse" x="31" y="31" width="9" height="8">
<path d="M32.5487 31.5909L39.1479 33.3795L37.6426 38.9536L31.0434 37.1649L32.5487 31.5909Z" fill="white"/>
</mask>
<g mask="url(#mask19_40_8549)">
<mask id="mask20_40_8549" style="mask-type:luminance" maskUnits="userSpaceOnUse" x="17" y="17" width="51" height="51">
<path d="M17.4815 36.0746L49.7835 17.5298L67.9484 49.1696L35.6462 67.7149L17.4815 36.0746Z" fill="white"/>
</mask>
<g mask="url(#mask20_40_8549)">
<mask id="mask21_40_8549" style="mask-type:luminance" maskUnits="userSpaceOnUse" x="17" y="17" width="51" height="51">
<path d="M49.8113 17.5132L17.5092 36.0585L35.6745 67.699L67.9761 49.1536L49.8113 17.5132Z" fill="white"/>
</mask>
<g mask="url(#mask21_40_8549)">
<mask id="mask22_40_8549" style="mask-type:luminance" maskUnits="userSpaceOnUse" x="17" y="17" width="51" height="51">
<path d="M49.8113 17.5132L17.5092 36.0585L35.6745 67.699L67.9761 49.1536L49.8113 17.5132Z" fill="white"/>
</mask>
<g mask="url(#mask22_40_8549)">
<path d="M36.2927 33.0136C36.3382 32.9613 36.381 32.9077 36.4206 32.8521C36.4556 32.8044 36.4994 32.7652 36.551 32.7355C36.6793 32.7703 36.8037 32.8151 36.9239 32.871C37.063 32.9204 37.1519 33.0442 37.2653 33.1321C37.3915 33.2499 37.5605 33.3025 37.6982 33.405L37.8141 33.4832C37.9834 33.5666 38.1117 33.7108 38.2798 33.7963L38.3987 33.8636C38.5464 33.9725 38.649 34.1411 38.8244 34.2108L38.8243 34.2661C38.4815 34.3878 38.185 34.6026 37.8897 34.8061C37.5792 34.9838 37.2691 35.1624 36.9591 35.3403C36.6378 35.4623 36.3589 35.6689 36.0485 35.8142C35.8928 35.8058 35.7806 35.9525 35.6355 35.9937C35.4659 36.0185 35.3146 36.1053 35.1507 36.1476C35.0259 36.1999 34.9077 36.2779 34.7729 36.306C34.7024 36.3324 34.6361 36.3845 34.5566 36.3783C34.4877 36.4058 34.4217 36.45 34.3428 36.455C34.2843 36.4736 34.2251 36.4951 34.1643 36.5106C34.0958 36.5412 34.0248 36.565 33.951 36.5813C33.8597 36.6051 33.7674 36.6237 33.674 36.6372C33.5453 36.6835 33.4131 36.722 33.2782 36.7574C33.2333 36.7686 33.1877 36.7784 33.1414 36.788C33.0952 36.7976 33.0473 36.8043 32.9999 36.8111C32.9434 36.8315 32.8858 36.8534 32.8268 36.8694C32.7679 36.8848 32.708 36.9042 32.6497 36.9197C32.566 36.9542 32.4798 36.9819 32.3916 37.0035C32.2971 37.0621 32.1939 37.0889 32.083 37.0853L31.9832 37.0908C31.9365 37.0997 31.8894 37.1078 31.8421 37.1147L31.7539 37.1406C31.6722 37.1473 31.5909 37.1591 31.5111 37.1769C31.4586 37.1552 31.4053 37.134 31.3513 37.1132L31.2884 37.0113L31.2353 37.0418L31.2678 36.967C31.2525 36.9395 31.2173 36.8875 31.2006 36.8609C31.4428 36.7266 31.6772 36.578 31.918 36.4398C31.9693 36.4113 32.0128 36.3732 32.0478 36.3255C32.1468 36.3118 32.2286 36.2663 32.2929 36.1897C32.4851 36.0493 32.722 35.9665 32.8846 35.7904C32.976 35.7297 33.0704 35.676 33.1616 35.6183C33.2106 35.5234 33.3166 35.4882 33.3986 35.4304C33.4628 35.3156 33.6113 35.2962 33.6831 35.1896C33.778 35.1182 33.8768 35.0528 33.9751 34.9871C34.0402 34.8984 34.1592 34.8698 34.214 34.774C34.2736 34.7262 34.3506 34.696 34.3855 34.6237C34.4591 34.5723 34.538 34.5303 34.5897 34.4552C34.7308 34.3674 34.8345 34.2337 34.9837 34.1592C35.0324 34.0519 35.1563 34.0233 35.2261 33.9402C35.2552 33.9007 35.2837 33.8611 35.312 33.8202C35.3949 33.7566 35.5165 33.7274 35.5612 33.6258C35.6133 33.5901 35.6654 33.5563 35.7172 33.5217C35.753 33.4755 35.792 33.4313 35.8332 33.3902C35.9031 33.3046 36.0275 33.2787 36.0764 33.1751C36.1525 33.1232 36.2334 33.083 36.2927 33.0136Z" fill="#111827"/>
</g>
</g>
</g>
</g>
<mask id="mask23_40_8549" style="mask-type:luminance" maskUnits="userSpaceOnUse" x="38" y="29" width="7" height="7">
<path d="M39.9239 29.3365L44.4702 30.5687L43.1629 35.4096L38.6165 34.1774L39.9239 29.3365Z" fill="white"/>
</mask>
<g mask="url(#mask23_40_8549)">
<mask id="mask24_40_8549" style="mask-type:luminance" maskUnits="userSpaceOnUse" x="17" y="17" width="51" height="51">
<path d="M17.4812 36.0745L49.7831 17.5299L67.9482 49.1697L35.6461 67.7149L17.4812 36.0745Z" fill="white"/>
</mask>
<g mask="url(#mask24_40_8549)">
<mask id="mask25_40_8549" style="mask-type:luminance" maskUnits="userSpaceOnUse" x="17" y="17" width="51" height="51">
<path d="M49.811 17.5133L17.5089 36.0585L35.6744 67.699L67.9759 49.1536L49.811 17.5133Z" fill="white"/>
</mask>
<g mask="url(#mask25_40_8549)">
<mask id="mask26_40_8549" style="mask-type:luminance" maskUnits="userSpaceOnUse" x="17" y="17" width="51" height="51">
<path d="M49.811 17.5133L17.5089 36.0585L35.6744 67.699L67.9759 49.1536L49.811 17.5133Z" fill="white"/>
</mask>
<g mask="url(#mask26_40_8549)">
<path d="M43.9505 32.2735C43.9179 32.3963 43.9031 32.5331 43.8037 32.6236C43.7769 32.6022 43.7227 32.5592 43.6953 32.5377C43.6617 32.5052 43.6271 32.4737 43.5898 32.4433C43.5526 32.4129 43.5195 32.3849 43.4835 32.3567C43.3923 32.2846 43.3055 32.2076 43.2239 32.1252C43.1744 32.1376 43.1245 32.1493 43.0738 32.1595C42.882 32.2416 42.7138 32.3725 42.5135 32.4357C42.4073 32.4604 42.3451 32.5561 42.2578 32.613C41.8515 32.8564 41.4291 33.0728 41.0208 33.3145C41.0989 33.4599 41.2024 33.5845 41.3306 33.6881C41.3761 33.7496 41.4264 33.8069 41.4815 33.86C41.5398 33.9195 41.5999 33.977 41.659 34.036C41.484 34.1171 41.3632 34.2707 41.1985 34.3663C41.1661 34.4405 41.0878 34.4709 41.0269 34.5165C40.9714 34.6128 40.8621 34.649 40.77 34.6984L40.6846 34.6187C40.6478 34.5884 40.612 34.5572 40.5774 34.5282C40.4682 34.4592 40.3709 34.3756 40.2853 34.278C40.1801 34.2304 40.0844 34.1682 39.9976 34.0912C39.9488 34.0466 39.8973 34.005 39.8428 33.968C39.8062 33.9372 39.7696 33.9064 39.7345 33.8747C39.7154 33.8591 39.677 33.8284 39.658 33.8122L39.4227 33.6931C39.303 33.5967 39.1935 33.4877 39.0809 33.3833C39.0424 33.3618 39.0046 33.3405 38.9651 33.3206C39.014 33.2668 39.0617 33.2133 39.108 33.1576C39.2127 33.0525 39.3283 32.9203 39.4829 32.9032C40.1998 32.5047 40.911 32.0978 41.6268 31.6966C41.8499 31.6101 42.0456 31.4706 42.2592 31.3649C42.0836 31.2503 41.9632 31.0744 41.871 30.8901C41.8535 30.6886 41.9438 30.5065 42.0313 30.3328C42.1463 30.2348 42.2796 30.1418 42.4349 30.1384C42.6191 30.2461 42.8318 30.3032 42.9859 30.4587L43.0694 30.5139C43.103 30.5464 43.1381 30.5781 43.1749 30.6083C43.2146 30.6523 43.2532 30.6984 43.2953 30.7406L43.383 30.7938C43.4257 30.8405 43.4681 30.8883 43.5145 30.9328C43.5741 30.9853 43.636 31.034 43.7013 31.0788L43.7977 31.127C43.8094 31.1474 43.8385 31.1855 43.8523 31.2052C43.9256 31.2386 43.9847 31.2884 44.0298 31.356C44.075 31.423 44.0994 31.4966 44.1034 31.5776C44.031 31.8114 44.0163 32.0479 43.9505 32.2735Z" fill="#111827"/>
</g>
</g>
</g>
</g>
<mask id="mask27_40_8549" style="mask-type:luminance" maskUnits="userSpaceOnUse" x="38" y="30" width="4" height="4">
<path d="M39.5796 30.0303L41.6328 30.5868L40.9197 33.2274L38.8665 32.6709L39.5796 30.0303Z" fill="white"/>
</mask>
<g mask="url(#mask27_40_8549)">
<mask id="mask28_40_8549" style="mask-type:luminance" maskUnits="userSpaceOnUse" x="17" y="17" width="51" height="51">
<path d="M17.4815 36.0741L49.7834 17.5293L67.9484 49.1691L35.6462 67.7144L17.4815 36.0741Z" fill="white"/>
</mask>
<g mask="url(#mask28_40_8549)">
<mask id="mask29_40_8549" style="mask-type:luminance" maskUnits="userSpaceOnUse" x="17" y="17" width="51" height="51">
<path d="M49.8112 17.5127L17.5091 36.058L35.6745 67.6985L67.976 49.1531L49.8112 17.5127Z" fill="white"/>
</mask>
<g mask="url(#mask29_40_8549)">
<mask id="mask30_40_8549" style="mask-type:luminance" maskUnits="userSpaceOnUse" x="17" y="17" width="51" height="51">
<path d="M49.8112 17.5127L17.5091 36.058L35.6745 67.6985L67.976 49.1531L49.8112 17.5127Z" fill="white"/>
</mask>
<g mask="url(#mask30_40_8549)">
<path d="M39.4407 32.3083C39.3213 32.466 39.1388 32.55 38.9695 32.6418C38.9927 32.5626 38.9966 32.4641 39.0762 32.4174L39.062 32.3926C39.1835 32.2909 39.2739 32.1518 39.4159 32.0747C39.5577 31.9981 39.6873 31.9189 39.8261 31.8396L39.8036 31.8003C39.8987 31.7462 39.994 31.6914 40.0836 31.6284C40.1403 31.514 40.2824 31.4867 40.3772 31.4134C40.4693 31.2907 40.6192 31.2342 40.7397 31.1457C40.9586 30.9837 41.1891 30.8407 41.4313 30.7157L41.5719 30.7071L41.5447 30.7895C41.0823 31.1586 40.5304 31.3879 40.0458 31.7251C40.0108 31.8091 39.9154 31.8325 39.8463 31.8789C39.8442 31.9183 39.84 31.959 39.8407 31.9973C39.7318 31.9248 39.6837 32.1165 39.5853 32.144L39.6036 32.1766C39.5065 32.2376 39.4063 32.2922 39.3028 32.341L39.4391 32.2938L39.4407 32.3083Z" fill="#111827"/>
</g>
</g>
</g>
</g>
<mask id="mask31_40_8549" style="mask-type:luminance" maskUnits="userSpaceOnUse" x="22" y="35" width="46" height="25">
<path d="M25.6945 35.4043L67.4824 46.7282L63.9963 59.6338L22.2084 48.3099L25.6945 35.4043Z" fill="white"/>
</mask>
<g mask="url(#mask31_40_8549)">
<mask id="mask32_40_8549" style="mask-type:luminance" maskUnits="userSpaceOnUse" x="17" y="17" width="51" height="51">
<path d="M17.4812 36.0746L49.7831 17.5298L67.948 49.1697L35.646 67.715L17.4812 36.0746Z" fill="white"/>
</mask>
<g mask="url(#mask32_40_8549)">
<mask id="mask33_40_8549" style="mask-type:luminance" maskUnits="userSpaceOnUse" x="17" y="17" width="51" height="51">
<path d="M49.8112 17.5132L17.5091 36.0585L35.6744 67.699L67.976 49.1535L49.8112 17.5132Z" fill="white"/>
</mask>
<g mask="url(#mask33_40_8549)">
<mask id="mask34_40_8549" style="mask-type:luminance" maskUnits="userSpaceOnUse" x="17" y="17" width="51" height="51">
<path d="M49.8112 17.5132L17.5091 36.0585L35.6744 67.699L67.976 49.1535L49.8112 17.5132Z" fill="white"/>
</mask>
<g mask="url(#mask34_40_8549)">
<path d="M23.6516 46.6821C23.634 46.5538 23.5462 46.4488 23.5399 46.3174C23.5417 46.2718 23.5406 46.2284 23.5424 46.1828C23.5101 46.1113 23.4838 46.0378 23.4631 45.9621C23.4516 45.8957 23.4419 45.8291 23.4312 45.7641C23.4114 45.5848 23.4032 45.4055 23.4065 45.225L23.4009 45.1251C23.3919 45.0606 23.3825 44.9953 23.3681 44.9324C23.3564 44.7325 23.4193 44.5449 23.4662 44.3553C23.4721 44.304 23.478 44.2527 23.4816 44.2027C23.5145 44.1108 23.5304 44.0155 23.5293 43.9168C23.5303 43.8563 23.5326 43.7954 23.5365 43.7356C23.5603 43.7998 23.5794 43.8659 23.5932 43.9329C23.5871 44.0763 23.6446 44.2204 23.6061 44.3631C23.5423 44.6243 23.5944 44.8911 23.6157 45.1538C23.6381 45.2257 23.6558 45.2987 23.6701 45.3733C23.7037 45.4925 23.7438 45.6103 23.7881 45.7262C23.8115 45.8125 23.8448 45.894 23.8882 45.9722C23.8978 46.0504 23.9247 46.126 23.9323 46.2049C24.0271 46.3935 24.132 46.5762 24.2471 46.7531C24.3855 46.8939 24.4921 47.0636 24.6334 47.2027C24.8031 47.3434 24.9465 47.5156 25.1399 47.6258C25.2133 47.6728 25.285 47.7211 25.3541 47.7749C25.5541 47.8832 25.7567 47.9866 25.9608 48.0868C26.11 48.126 26.2212 48.2422 26.3687 48.2834C26.4936 48.3216 26.6029 48.3924 26.7255 48.4348C26.8559 48.4683 26.9947 48.4666 27.1184 48.5229C27.3699 48.6636 27.6536 48.7878 27.948 48.7514C28.2034 48.8753 28.4768 48.9943 28.7627 49.0029C28.9076 48.9807 29.0393 49.0508 29.1671 49.1033C29.3983 49.1303 29.6216 49.2092 29.8565 49.2046L29.9534 49.2008C30.2829 49.3441 30.6661 49.2746 31.0022 49.4026C31.0424 49.3834 31.0803 49.366 31.1195 49.3483C31.2329 49.3883 31.3495 49.4119 31.4698 49.4193C31.6568 49.3753 31.8287 49.4717 32.0118 49.4856C32.1394 49.4206 32.2799 49.4716 32.4156 49.461C32.5323 49.4588 32.6451 49.5011 32.7604 49.509C32.8478 49.529 32.9368 49.534 33.0258 49.5231C33.2177 49.4976 33.4114 49.5403 33.6038 49.5562C33.6955 49.5036 33.8053 49.4792 33.9013 49.536C33.9771 49.5442 34.0512 49.5452 34.1256 49.5476L34.2626 49.5386C34.4678 49.5001 34.6935 49.6455 34.8818 49.5195C35.0036 49.5193 35.1231 49.5388 35.2442 49.5458C35.3621 49.5052 35.4852 49.5453 35.6054 49.5373C35.9239 49.4779 36.2519 49.6086 36.5634 49.4907C36.8053 49.4758 37.0453 49.534 37.2864 49.5084C37.3958 49.5036 37.51 49.4792 37.6137 49.5276C37.7254 49.5216 37.8361 49.503 37.9476 49.4908C38.0084 49.4637 38.067 49.4605 38.11 49.5201L38.2018 49.4669C38.3451 49.4848 38.4878 49.5161 38.6318 49.5133C38.8784 49.5267 39.1256 49.5057 39.3716 49.5349C39.556 49.5074 39.7376 49.5609 39.9221 49.5697C40.1128 49.5919 40.3058 49.6036 40.4963 49.6288C40.5749 49.6311 40.6516 49.6432 40.7305 49.6468C40.9477 49.6073 41.1386 49.7586 41.356 49.7388C41.4466 49.7652 41.5381 49.779 41.6324 49.7805C41.7829 49.774 41.9293 49.8327 42.0798 49.8489C42.3265 49.9053 42.5842 49.9045 42.8241 49.9928C42.9634 50.0275 43.1099 49.9609 43.2419 50.0366C43.4614 50.0727 43.6828 50.086 43.8967 50.1587C44.2558 50.1472 44.6173 50.2218 44.974 50.2711C45.1788 50.3027 45.3874 50.2633 45.5896 50.3132C45.7831 50.309 45.9743 50.3547 46.1613 50.3882C46.334 50.4657 46.5189 50.3818 46.6955 50.4198C47.2963 50.526 47.9047 50.5741 48.5045 50.6973C48.7656 50.757 49.0404 50.7159 49.2955 50.8072C49.5172 50.8396 49.7472 50.8324 49.9619 50.9091C50.0929 50.8997 50.2233 50.8902 50.3556 50.8897C50.6778 50.9463 51.0021 50.9678 51.329 50.9543C51.4459 50.9313 51.5636 50.9552 51.6805 50.9592C51.8937 50.9709 52.1129 50.9559 52.3261 50.9952C52.5393 51.0339 52.7498 50.9465 52.964 50.9388C53.2515 50.9552 53.5387 50.9457 53.8243 50.91C53.9807 50.9136 54.1375 50.9408 54.2911 50.9C54.3805 50.8763 54.4724 50.8569 54.5619 50.8326C54.63 50.824 54.6987 50.8156 54.7677 50.8079C54.8122 50.8095 54.8566 50.811 54.9015 50.8134L55.003 50.8015C55.0681 50.786 55.135 50.7771 55.2008 50.7678L55.3372 50.7704C55.4159 50.7591 55.4954 50.7536 55.5749 50.753C55.5606 50.7012 55.5479 50.6504 55.5357 50.5998C55.6618 50.5725 55.7887 50.6259 55.9154 50.5982C55.8099 50.6839 55.6656 50.5673 55.5548 50.6523L55.609 50.761C55.673 50.7538 55.7372 50.7484 55.8009 50.7423C55.8646 50.7362 55.9199 50.718 55.9799 50.7078C56.1317 50.626 56.3047 50.6022 56.4714 50.5767C56.6783 50.5504 56.8876 50.5444 57.0888 50.4846C57.1551 50.4712 57.2221 50.4598 57.2883 50.447C57.3339 50.4465 57.3788 50.4463 57.4251 50.4478C57.5251 50.3962 57.6306 50.3609 57.7414 50.3417L57.8793 50.3434L57.9791 50.3379C58.094 50.2903 58.2123 50.2529 58.3338 50.2262C58.4211 50.1853 58.5126 50.1628 58.6093 50.1576C58.6797 50.1472 58.7477 50.13 58.818 50.1134C58.9606 50.0905 59.0994 50.0544 59.2342 50.0036C59.2813 49.9955 59.3274 49.9864 59.3732 49.9761C59.434 49.9674 59.4943 49.9579 59.5546 49.9509C59.6497 49.9311 59.7433 49.9055 59.839 49.8878C59.9246 49.8396 60.0156 49.8213 60.1131 49.8335C60.2316 49.7974 60.3483 49.7547 60.4713 49.7314C60.5725 49.6912 60.677 49.6642 60.7849 49.6492C61.0011 49.5768 61.2115 49.4943 61.4254 49.417C61.5222 49.4205 61.6154 49.4033 61.7049 49.3655C61.8388 49.3292 61.9682 49.285 62.0974 49.2413C62.2338 49.2143 62.3646 49.1668 62.4997 49.1333C62.7127 49.0478 62.9333 48.9821 63.1516 48.9134C63.3167 48.8758 63.4646 48.7763 63.6301 48.7529C63.9377 48.5769 64.2832 48.4424 64.516 48.163C64.6481 47.9449 64.8966 47.826 65.0299 47.6101C65.1369 47.5235 65.2386 47.4312 65.3344 47.3317L65.4269 47.2234C65.6246 46.924 65.8713 46.6614 66.1034 46.3892C66.3153 46.6016 66.4882 46.8421 66.6213 47.1118C66.6909 47.2819 66.7927 47.4465 66.7966 47.637C66.8568 47.8236 66.8808 48.0145 66.8679 48.2102L66.8792 48.3073C66.8728 48.3812 66.8668 48.4558 66.8625 48.5309C66.7313 48.8027 66.621 49.0858 66.4526 49.3383C66.3718 49.4941 66.2937 49.6512 66.1974 49.7985L66.1407 49.8833C66.1074 49.9155 66.0755 49.9493 66.0441 49.9838C66.0119 50.0187 65.9849 50.055 65.9558 50.092C65.9269 50.1285 65.8926 50.1622 65.8645 50.1958C65.8128 50.2598 65.7603 50.3243 65.7091 50.3885C65.6565 50.4265 65.6092 50.4696 65.5665 50.5183C65.4329 50.6057 65.2947 50.685 65.1519 50.7564C65.006 50.7617 64.9069 50.9101 64.7595 50.9003C64.6489 50.9459 64.5537 51.0412 64.4303 51.0453L64.3409 51.069C64.2355 51.086 64.1451 51.1475 64.0419 51.17C63.9304 51.2166 63.8244 51.2813 63.7059 51.3033C63.6349 51.3296 63.5692 51.3819 63.4897 51.3757L63.4047 51.4012C63.3125 51.4125 63.2291 51.4551 63.1391 51.4768C63.0806 51.5021 63.02 51.5195 62.9576 51.5297C62.9011 51.55 62.8426 51.5661 62.7835 51.5778C62.6756 51.5952 62.5706 51.6289 62.4653 51.6569C62.3963 51.6825 62.3284 51.7108 62.2599 51.739C62.2133 51.7479 62.1682 51.7578 62.1197 51.7711C62.0588 51.7804 61.9973 51.7895 61.937 51.8015C61.8909 51.8148 61.8438 51.8279 61.7969 51.8397C61.7248 51.8632 61.6532 51.8893 61.5792 51.9086C61.5329 51.9182 61.4863 51.9271 61.44 51.9367C61.2207 51.9523 61.0134 52.0233 60.8079 52.0924L60.6693 52.1207C60.5795 52.1437 60.4864 52.1609 60.3924 52.1766C60.3453 52.1847 60.2974 52.1914 60.2495 52.1981L60.1665 52.2254C60.1179 52.2301 60.07 52.2368 60.0225 52.2442C59.975 52.2516 59.9295 52.2676 59.8826 52.2819C59.836 52.2816 59.7901 52.2832 59.7423 52.2826L59.6425 52.2949C59.5855 52.317 59.5279 52.3389 59.4707 52.3621C59.3878 52.3753 59.3052 52.3898 59.2225 52.4049C59.1769 52.4029 59.1307 52.4009 59.0854 52.4003C58.9594 52.4209 58.8367 52.4472 58.7126 52.4696C58.6042 52.4955 58.498 52.527 58.3936 52.5651C58.2913 52.5663 58.1932 52.5606 58.0921 52.5596C58.0481 52.5723 58.0003 52.5852 57.9544 52.5961L57.8196 52.6216L57.7163 52.6219L57.6193 52.6325C57.5324 52.636 57.4448 52.6393 57.358 52.6466C57.3118 52.647 57.2647 52.6483 57.2186 52.6506C57.0202 52.7161 56.815 52.7748 56.6029 52.7456C56.5028 52.7566 56.4021 52.7631 56.3015 52.7691C56.2063 52.8097 56.1054 52.7873 56.007 52.7827C55.9199 52.7892 55.8315 52.7954 55.7444 52.8062C55.665 52.8087 55.5855 52.8118 55.5055 52.8122C55.4063 52.8222 55.3077 52.8367 55.2091 52.8561C55.0225 52.8639 54.8331 52.8827 54.6471 52.8476C54.5465 52.8628 54.4448 52.8752 54.3431 52.8876C54.234 52.8771 54.129 52.8609 54.0214 52.8564C53.8637 52.8806 53.7053 52.9047 53.5466 52.9281C53.4615 52.8995 53.3736 52.8904 53.2837 52.8999C53.1968 52.8985 53.1123 52.8952 53.025 52.8906L52.9261 52.9063C52.6639 52.9145 52.402 52.8577 52.1412 52.9063C52.0741 52.909 52.0082 52.9139 51.9436 52.921C51.848 52.9129 51.7538 52.8978 51.6605 52.8768C51.4548 52.8439 51.2471 52.9074 51.0411 52.8602C50.9606 52.8624 50.8811 52.8697 50.801 52.8775C50.6358 52.8678 50.47 52.8671 50.3045 52.8745C50.1694 52.8853 50.0401 52.8066 49.9061 52.8453C49.7946 52.8212 49.6814 52.8145 49.5677 52.8237C49.3112 52.879 49.0535 52.7839 48.7951 52.7938C48.6457 52.8031 48.5026 52.7551 48.3538 52.7437C48.1877 52.7509 48.0216 52.7994 47.8568 52.7701C47.7282 52.75 47.5986 52.7382 47.468 52.7348C47.3741 52.7253 47.2811 52.71 47.1891 52.6887C47.1339 52.6904 47.0795 52.6873 47.0249 52.6799C46.7581 52.7189 46.4872 52.6565 46.2193 52.6448C46.0678 52.6505 45.9253 52.6069 45.778 52.5811C45.552 52.5986 45.3048 52.6466 45.0916 52.5531C44.974 52.5471 44.8574 52.5327 44.7412 52.5098C44.5125 52.4577 44.2763 52.5221 44.0483 52.4696C43.8379 52.4224 43.619 52.4295 43.4085 52.3829C43.3664 52.3702 43.3243 52.3576 43.284 52.3454C43.0975 52.3373 42.9114 52.3865 42.7256 52.3441C42.4856 52.2883 42.2426 52.2594 41.9963 52.2565C41.9102 52.2658 41.8243 52.2653 41.7378 52.2554C41.6512 52.246 41.5573 52.2476 41.4841 52.1909L41.3864 52.2001C41.2383 52.1815 41.0943 52.1504 40.9458 52.1428C40.8185 52.1249 40.6919 52.0949 40.5607 52.1005C40.3396 52.0793 40.1174 52.0671 39.8977 52.0291C39.6706 51.9528 39.4255 51.9638 39.1902 51.9744C39.1486 51.9625 39.1083 51.9479 39.0695 51.93C38.7723 51.8901 38.4755 51.8213 38.1735 51.8427C38.0546 51.8597 37.9573 51.7602 37.8413 51.7755C37.6642 51.7939 37.4987 51.7035 37.3216 51.7152C37.0999 51.6188 36.8549 51.6907 36.6282 51.6195C36.3416 51.5861 36.0655 51.4774 35.7735 51.5071C35.544 51.4671 35.315 51.4271 35.0841 51.3947C35.0439 51.3771 35.0047 51.3584 34.9673 51.3378C34.784 51.3472 34.5928 51.3839 34.4232 51.2881C34.1576 51.2518 33.901 51.1528 33.6298 51.169C33.2828 51.0928 32.9326 51.0195 32.5831 50.9481C32.2419 50.9325 31.9151 50.8267 31.5875 50.7404C31.3961 50.7297 31.2107 50.6789 31.0227 50.6445C30.862 50.6341 30.7318 50.522 30.5736 50.5001C30.4153 50.4787 30.2531 50.4716 30.0963 50.4353C29.939 50.3988 29.8059 50.3043 29.6487 50.2789C29.3901 50.2347 29.1141 50.2121 28.8909 50.06C28.7793 49.9929 28.6472 49.9835 28.5213 49.9672C28.3005 49.9246 28.0749 49.8653 27.8938 49.7234C27.7616 49.6532 27.6066 49.6579 27.4682 49.6105C27.3648 49.5586 27.2551 49.5233 27.1478 49.4813C26.6889 49.2666 26.2304 49.0501 25.7734 48.8328C25.7542 48.8153 25.7152 48.782 25.696 48.7645C25.6257 48.6925 25.5459 48.6328 25.4571 48.586C25.3806 48.5438 25.3024 48.5035 25.2242 48.4651C25.0395 48.3296 24.8736 48.1678 24.6763 48.0498C24.6108 47.9896 24.5602 47.9151 24.4945 47.8555C24.415 47.7607 24.3295 47.6724 24.2389 47.5888C23.9822 47.3262 23.8286 46.9938 23.6516 46.6821ZM45.6663 52.3689C45.6847 52.3757 45.721 52.3892 45.7401 52.3981C45.7255 52.3726 45.6983 52.3185 45.6864 52.2944C45.6415 52.324 45.5966 52.3537 45.552 52.3846C45.5908 52.3798 45.6286 52.374 45.6663 52.3689Z" fill="#111827"/>
</g>
</g>
</g>
</g>
<mask id="mask35_40_8549" style="mask-type:luminance" maskUnits="userSpaceOnUse" x="40" y="31" width="7" height="7">
<path d="M42.2852 31.0787L46.9782 32.3507L45.5916 37.485L40.8986 36.213L42.2852 31.0787Z" fill="white"/>
</mask>
<g mask="url(#mask35_40_8549)">
<mask id="mask36_40_8549" style="mask-type:luminance" maskUnits="userSpaceOnUse" x="17" y="17" width="51" height="51">
<path d="M17.4813 36.0745L49.7832 17.5299L67.9483 49.1697L35.6462 67.7149L17.4813 36.0745Z" fill="white"/>
</mask>
<g mask="url(#mask36_40_8549)">
<mask id="mask37_40_8549" style="mask-type:luminance" maskUnits="userSpaceOnUse" x="17" y="17" width="51" height="51">
<path d="M49.811 17.5133L17.5089 36.0585L35.6744 67.699L67.9759 49.1536L49.811 17.5133Z" fill="white"/>
</mask>
<g mask="url(#mask37_40_8549)">
<mask id="mask38_40_8549" style="mask-type:luminance" maskUnits="userSpaceOnUse" x="17" y="17" width="51" height="51">
<path d="M49.811 17.5133L17.5089 36.0585L35.6744 67.699L67.9759 49.1536L49.811 17.5133Z" fill="white"/>
</mask>
<g mask="url(#mask38_40_8549)">
<path d="M46.0684 34.1593C45.9771 34.2354 45.9035 34.4258 45.7668 34.3198C45.7104 34.3464 45.6541 34.3729 45.5971 34.3993C45.4101 34.4544 45.2479 34.5679 45.0739 34.6566C44.5615 34.947 44.0498 35.2388 43.5431 35.5399C43.5629 35.5735 43.6012 35.6411 43.6182 35.6759C43.5984 35.8562 43.5952 36.0367 43.6085 36.2175C43.6033 36.3483 43.5576 36.4718 43.542 36.6004C43.5723 36.6701 43.6028 36.7393 43.6332 36.8065C43.5255 36.7275 43.402 36.6725 43.2997 36.5845C43.2279 36.5226 43.1553 36.4611 43.0805 36.4058C42.9572 36.3478 42.8495 36.2688 42.7579 36.1683C42.6283 36.0975 42.5066 36.0153 42.3923 35.9216C42.3679 35.9095 42.3202 35.8861 42.2959 35.8734C42.282 35.8542 42.2541 35.8165 42.2402 35.7974C42.054 35.6971 41.9112 35.5403 41.7478 35.4081C41.7126 35.3764 41.6783 35.3443 41.6435 35.3091L41.5602 35.2533L41.4723 35.2079C41.4324 35.1664 41.3941 35.124 41.3556 35.0822C41.4305 35.0392 41.5056 34.9956 41.5793 34.9504C41.6473 34.8649 41.7464 34.8167 41.8329 34.7535C41.8904 34.7001 41.9434 34.6426 41.9919 34.5813L42.105 34.5087C42.2045 34.559 42.3095 34.5936 42.4194 34.6123C42.5328 34.6295 42.6358 34.7196 42.7515 34.7054C43.2659 34.415 43.7796 34.1244 44.2943 33.8328C44.4214 33.7762 44.5537 33.7371 44.691 33.7159C44.7767 33.6991 44.8586 33.6715 44.9374 33.6344C44.8567 33.4871 44.755 33.3562 44.6316 33.2416C44.5956 33.2109 44.5605 33.1793 44.5261 33.1472C44.4745 33.1086 44.4238 33.0684 44.3717 33.0291C44.4169 32.9257 44.4497 32.8178 44.4705 32.7066L44.5178 32.6247C44.5664 32.545 44.6123 32.4615 44.6535 32.3773C44.7293 32.2128 44.696 32.0217 44.7631 31.8554C44.8587 31.9453 44.9568 32.0328 45.0514 32.1242C45.1085 32.1631 45.1655 32.2025 45.2223 32.2425C45.2683 32.2796 45.3121 32.3197 45.3563 32.3588C45.4469 32.4719 45.5544 32.5656 45.6793 32.6382C45.746 32.6846 45.8042 32.7403 45.853 32.8052C45.9101 32.8533 45.9609 32.9088 46.0163 32.9589C46.0911 33.0186 46.1569 33.0868 46.2135 33.1643C46.2815 33.2288 46.3415 33.298 46.4112 33.3611C46.4513 33.4243 46.4896 33.4894 46.5272 33.5531C46.492 33.8246 46.2188 33.9528 46.0684 34.1593Z" fill="#111827"/>
</g>
</g>
</g>
</g>
<mask id="mask39_40_8549" style="mask-type:luminance" maskUnits="userSpaceOnUse" x="43" y="33" width="7" height="7">
<path d="M45.0072 33.233L49.4068 34.4255L48.1391 39.1197L43.7395 37.9271L45.0072 33.233Z" fill="white"/>
</mask>
<g mask="url(#mask39_40_8549)">
<mask id="mask40_40_8549" style="mask-type:luminance" maskUnits="userSpaceOnUse" x="17" y="17" width="51" height="51">
<path d="M17.4815 36.0745L49.7835 17.5299L67.9485 49.1697L35.6464 67.7149L17.4815 36.0745Z" fill="white"/>
</mask>
<g mask="url(#mask40_40_8549)">
<mask id="mask41_40_8549" style="mask-type:luminance" maskUnits="userSpaceOnUse" x="17" y="17" width="51" height="51">
<path d="M49.8113 17.5133L17.5092 36.0585L35.6746 67.699L67.9762 49.1536L49.8113 17.5133Z" fill="white"/>
</mask>
<g mask="url(#mask41_40_8549)">
<mask id="mask42_40_8549" style="mask-type:luminance" maskUnits="userSpaceOnUse" x="17" y="17" width="51" height="51">
<path d="M49.8113 17.5133L17.5092 36.0585L35.6746 67.699L67.9762 49.1536L49.8113 17.5133Z" fill="white"/>
</mask>
<g mask="url(#mask42_40_8549)">
<path d="M48.9081 36.0818C48.7801 36.1412 48.6621 36.223 48.528 36.269C48.3401 36.2544 48.1313 36.2968 47.9658 36.1787C47.8798 36.1191 47.7867 36.0748 47.687 36.0454C47.5254 36.0907 47.3875 36.1892 47.2422 36.2698C46.8093 36.5251 46.3585 36.7485 45.9273 37.0068C45.9688 37.0648 46.0009 37.135 46.0649 37.1732C46.1995 37.2872 46.2593 37.4461 46.3218 37.6063C46.3058 37.693 46.2838 37.7786 46.2552 37.8619L46.1698 37.9162C46.0553 38.0537 45.971 38.2086 45.9164 38.3789C45.861 38.3497 45.8051 38.3198 45.7491 38.2905C45.7067 38.2562 45.664 38.2231 45.6213 38.19C45.554 38.1478 45.487 38.1044 45.4204 38.0618L45.337 38.0066C45.2364 37.9375 45.1315 37.8771 45.0212 37.8257C45.0008 37.8103 44.9592 37.78 44.9388 37.7646C44.8583 37.6825 44.7716 37.6073 44.6794 37.5387C44.6173 37.4887 44.5506 37.4466 44.4786 37.4129C44.4496 37.3928 44.4206 37.3726 44.3923 37.352C44.3364 37.3154 44.2815 37.2796 44.2275 37.2452C44.1648 37.1907 44.1036 37.1348 44.0457 37.0761C44.0911 37.0103 44.1384 36.9468 44.1858 36.8828L44.2546 36.8283C44.2774 36.6598 44.385 36.5229 44.4588 36.375L44.5118 36.2812L44.6368 36.2031C44.7205 36.2301 44.7928 36.2743 44.8554 36.3362C45.0817 36.2223 45.2863 36.0631 45.5297 35.9839C45.5886 35.9341 45.6415 35.8679 45.7252 35.8746C46.0628 35.6807 46.4176 35.5143 46.7461 35.3064C46.8137 35.1838 46.8958 35.0708 46.9706 34.9533C46.9718 34.91 46.9624 34.8699 46.9412 34.8322C46.92 34.7945 46.8912 34.7645 46.8539 34.7434L46.8771 34.6869C46.7556 34.7204 46.72 34.5994 46.7262 34.5058L46.6084 34.5551C46.6819 34.5129 46.775 34.4778 46.7827 34.3809C46.8685 34.1908 46.8687 33.9578 46.9984 33.7918C47.0108 33.9643 47.0985 34.1086 47.1892 34.2506L47.2958 34.2205L47.2341 34.1527L47.3034 34.0989L47.363 34.1785C47.3161 34.2248 47.221 34.29 47.2904 34.3654C47.3803 34.308 47.4745 34.2597 47.573 34.2206C47.638 34.2917 47.7088 34.3576 47.7729 34.4298C47.8697 34.5083 47.9518 34.6006 48.0435 34.6845C48.1146 34.7444 48.1799 34.81 48.239 34.8826C48.2952 34.936 48.3458 34.9946 48.4017 35.0473C48.532 35.1453 48.6397 35.2631 48.7267 35.401C48.8131 35.5388 48.8719 35.6876 48.9037 35.8475C48.9221 35.9251 48.9238 36.003 48.9081 36.0818ZM46.9549 34.2056C46.9354 34.3141 46.9726 34.4631 46.8579 34.5261C46.8868 34.5487 46.9166 34.5728 46.945 34.5971C46.9242 34.4875 46.9467 34.3885 47.0139 34.299C47 34.2775 46.9701 34.2312 46.9554 34.2082L46.9549 34.2056Z" fill="#111827"/>
</g>
</g>
</g>
</g>
<mask id="mask43_40_8549" style="mask-type:luminance" maskUnits="userSpaceOnUse" x="46" y="35" width="6" height="6">
<path d="M47.2497 35.4151L51.7959 36.6473L50.6867 40.7546L46.1405 39.5223L47.2497 35.4151Z" fill="white"/>
</mask>
<g mask="url(#mask43_40_8549)">
<mask id="mask44_40_8549" style="mask-type:luminance" maskUnits="userSpaceOnUse" x="17" y="17" width="51" height="51">
<path d="M17.4814 36.0745L49.7833 17.5299L67.9484 49.1697L35.6463 67.7149L17.4814 36.0745Z" fill="white"/>
</mask>
<g mask="url(#mask44_40_8549)">
<mask id="mask45_40_8549" style="mask-type:luminance" maskUnits="userSpaceOnUse" x="17" y="17" width="51" height="51">
<path d="M49.8112 17.5133L17.5091 36.0585L35.6745 67.699L67.9761 49.1536L49.8112 17.5133Z" fill="white"/>
</mask>
<g mask="url(#mask45_40_8549)">
<mask id="mask46_40_8549" style="mask-type:luminance" maskUnits="userSpaceOnUse" x="17" y="17" width="51" height="51">
<path d="M49.8112 17.5133L17.5091 36.0585L35.6745 67.699L67.9761 49.1536L49.8112 17.5133Z" fill="white"/>
</mask>
<g mask="url(#mask46_40_8549)">
<path d="M51.2464 37.9585C51.1718 38.0638 51.0886 38.1624 51.0125 38.269C50.9522 38.3148 50.8905 38.3589 50.8301 38.4004L50.7552 38.3702C50.5731 38.2434 50.3533 38.1512 50.2303 37.9555C49.6912 38.2651 49.1526 38.5748 48.6136 38.8837C48.6259 38.911 48.6511 38.9658 48.6625 38.9917C48.723 39.1637 48.7033 39.3508 48.6538 39.5249C48.6017 39.5631 48.5396 39.5948 48.5068 39.6573C48.3605 39.7412 48.2171 39.8327 48.1079 39.9642C48.0529 39.9309 47.9971 39.8985 47.9406 39.8666C47.9289 39.8462 47.9002 39.8089 47.887 39.7894C47.6845 39.7652 47.6011 39.5618 47.4397 39.4676C47.3989 39.4455 47.3589 39.423 47.3194 39.4006C47.233 39.2745 47.0682 39.2495 46.9712 39.1353C46.9012 39.0597 46.8203 38.9997 46.7282 38.9538L46.6374 38.9077C46.6037 38.8752 46.5701 38.8427 46.5371 38.8098L46.4649 38.7723C46.6259 38.6678 46.7817 38.5551 46.9404 38.448C46.9411 38.4249 46.9414 38.3782 46.942 38.3556L47.0098 38.3002C47.0878 38.1664 47.2544 38.123 47.3788 38.0448C47.4366 38.0857 47.4994 38.115 47.5676 38.1335C47.8122 38.0448 48.0094 37.8406 48.2653 37.7808C48.6198 37.5903 48.9702 37.3834 49.3174 37.1768C49.3126 37.149 49.3041 37.0939 49.2993 37.0661C49.2909 37.0177 49.2849 36.9693 49.2826 36.9208C49.2463 36.8574 49.2099 36.794 49.1739 36.7314C49.1381 36.7094 49.1026 36.6881 49.0675 36.6657L49.1808 36.5943C49.2446 36.4628 49.2788 36.3158 49.3525 36.1907C49.464 36.1262 49.5926 36.0529 49.7257 36.0883C49.7992 36.1507 49.8692 36.217 49.935 36.2877C50.0406 36.3815 50.1656 36.4603 50.241 36.5865C50.333 36.6508 50.4359 36.7027 50.5134 36.7864C50.6261 36.8975 50.7427 37.0053 50.8531 37.1177C50.8934 37.1415 50.9324 37.1656 50.9727 37.1895L51.0576 37.2482C51.1075 37.3275 51.1527 37.4129 51.2318 37.4682C51.2944 37.5577 51.3525 37.6497 51.4107 37.7417C51.3744 37.7872 51.3371 37.8319 51.2995 37.8758L51.2464 37.9585Z" fill="#111827"/>
</g>
</g>
</g>
</g>
<mask id="mask47_40_8549" style="mask-type:luminance" maskUnits="userSpaceOnUse" x="48" y="37" width="6" height="6">
<path d="M49.7181 37.3433L53.971 38.496L52.9014 42.4566L48.6485 41.3039L49.7181 37.3433Z" fill="white"/>
</mask>
<g mask="url(#mask47_40_8549)">
<mask id="mask48_40_8549" style="mask-type:luminance" maskUnits="userSpaceOnUse" x="17" y="17" width="51" height="51">
<path d="M17.4814 36.074L49.7833 17.5294L67.9484 49.1692L35.6463 67.7144L17.4814 36.074Z" fill="white"/>
</mask>
<g mask="url(#mask48_40_8549)">
<mask id="mask49_40_8549" style="mask-type:luminance" maskUnits="userSpaceOnUse" x="17" y="17" width="51" height="51">
<path d="M49.8112 17.5128L17.5091 36.058L35.6745 67.6985L67.9761 49.1532L49.8112 17.5128Z" fill="white"/>
</mask>
<g mask="url(#mask49_40_8549)">
<mask id="mask50_40_8549" style="mask-type:luminance" maskUnits="userSpaceOnUse" x="17" y="17" width="51" height="51">
<path d="M49.8112 17.5128L17.5091 36.058L35.6745 67.6985L67.9761 49.1532L49.8112 17.5128Z" fill="white"/>
</mask>
<g mask="url(#mask50_40_8549)">
<path d="M53.4397 39.5477C53.538 39.6684 53.5152 39.8191 53.4296 39.9379C53.3398 39.988 53.2741 40.0606 53.2322 40.1544C53.0921 40.1472 52.9554 40.1888 52.8166 40.1862C52.6418 40.1346 52.6548 39.8749 52.4816 39.8193C52.3165 39.8914 52.1684 40.005 51.993 40.0602C51.7413 40.1887 51.4973 40.3341 51.2332 40.4378C51.1307 40.4715 51.0456 40.5726 50.9309 40.56C50.8742 40.5926 50.813 40.6234 50.7575 40.6557C50.83 40.7811 50.9173 40.8952 51.0184 40.9988L50.9407 41.1044C50.8893 41.1397 50.8444 41.181 50.8056 41.2289C50.6572 41.3664 50.496 41.49 50.3512 41.6322C50.2952 41.5776 50.2371 41.5244 50.1879 41.4674C50.0656 41.4102 49.954 41.3363 49.8543 41.2459C49.7492 41.1615 49.6074 41.1286 49.5202 41.0238C49.4644 40.9865 49.4073 40.9501 49.3505 40.9145C49.1937 40.8031 49.0438 40.6819 48.901 40.5528C48.9891 40.3473 49.0409 40.1326 49.1295 39.9297C49.2352 39.8618 49.3429 39.7975 49.452 39.7349C49.5594 39.7972 49.6708 39.8513 49.7855 39.8978C49.856 39.9304 49.9236 39.9647 49.9925 39.9988C50.1026 39.9438 50.2035 39.8752 50.2956 39.7938C50.7591 39.4889 51.2716 39.2688 51.7576 39.0014C51.6906 38.7532 51.8505 38.5346 51.9076 38.3047C51.944 38.2654 51.9795 38.2252 52.0135 38.1834C52.0613 38.1521 52.1119 38.1264 52.1648 38.1057C52.2745 38.1982 52.3659 38.3152 52.4929 38.3865C52.5503 38.4427 52.608 38.4976 52.6667 38.5535C52.7051 38.5775 52.7456 38.6007 52.7822 38.6266C52.8833 38.7487 52.9938 38.863 53.113 38.9678C53.3052 39.0851 53.5381 39.2903 53.4397 39.5477Z" fill="#111827"/>
</g>
</g>
</g>
</g>
<mask id="mask51_40_8549" style="mask-type:luminance" maskUnits="userSpaceOnUse" x="50" y="39" width="7" height="6">
<path d="M51.7466 39.1529L56.5859 40.4645L55.5956 44.1316L50.7563 42.8199L51.7466 39.1529Z" fill="white"/>
</mask>
<g mask="url(#mask51_40_8549)">
<mask id="mask52_40_8549" style="mask-type:luminance" maskUnits="userSpaceOnUse" x="17" y="17" width="51" height="51">
<path d="M17.4813 36.0745L49.7832 17.5298L67.9482 49.1696L35.6461 67.7149L17.4813 36.0745Z" fill="white"/>
</mask>
<g mask="url(#mask52_40_8549)">
<mask id="mask53_40_8549" style="mask-type:luminance" maskUnits="userSpaceOnUse" x="17" y="17" width="51" height="51">
<path d="M49.8112 17.5132L17.5091 36.0585L35.6745 67.699L67.976 49.1536L49.8112 17.5132Z" fill="white"/>
</mask>
<g mask="url(#mask53_40_8549)">
<mask id="mask54_40_8549" style="mask-type:luminance" maskUnits="userSpaceOnUse" x="17" y="17" width="51" height="51">
<path d="M49.8112 17.5132L17.5091 36.0585L35.6745 67.699L67.976 49.1536L49.8112 17.5132Z" fill="white"/>
</mask>
<g mask="url(#mask54_40_8549)">
<path d="M55.6763 42.2458C55.617 42.2992 55.558 42.365 55.4756 42.3789C55.3032 42.323 55.175 42.1898 55.0149 42.1157C54.7596 41.9524 54.5781 41.6978 54.3043 41.5646C54.2548 41.5973 54.2228 41.6839 54.1513 41.6621C54.0523 41.7761 53.9424 41.8779 53.8217 41.9675C53.6181 42.0224 53.3766 42.1519 53.4111 42.3998C53.5018 42.5966 53.6523 42.761 53.7333 42.9619C53.4983 43.0488 53.2828 43.1706 53.0863 43.327L52.9608 43.3705C52.8642 43.3664 52.7727 43.341 52.6872 43.2957C52.6752 43.274 52.6482 43.2329 52.6352 43.2127L52.5402 43.1636C52.465 43.11 52.3918 43.0533 52.3212 42.9936C52.2656 42.9558 52.2095 42.9178 52.1545 42.8826C52.1092 42.85 52.0647 42.8164 52.018 42.7847C51.9831 42.7544 51.9485 42.7234 51.9138 42.6925C51.8785 42.6614 51.8434 42.6298 51.8082 42.5987C51.7725 42.5669 51.7352 42.5365 51.6992 42.5058C51.5451 42.3663 51.3917 42.2288 51.2055 42.1328C51.1539 42.0826 51.1002 42.0354 51.0445 41.9914C51.0998 41.9209 51.1668 41.8616 51.2279 41.797C51.2672 41.7449 51.3063 41.6934 51.3471 41.6448C51.3883 41.597 51.4324 41.5474 51.4728 41.4981C51.5276 41.441 51.5805 41.3816 51.6355 41.3258C51.6586 41.3449 51.706 41.3836 51.7305 41.4019C51.7719 41.4193 51.8128 41.4365 51.854 41.4545C51.945 41.5228 52.0325 41.5951 52.1223 41.6655C52.1612 41.6896 52.2001 41.7143 52.2393 41.7397C52.2953 41.769 52.3531 41.7964 52.4118 41.8227C52.568 41.7224 52.7328 41.6355 52.889 41.5352C52.9602 41.4561 53.0565 41.409 53.1474 41.3568C53.3942 41.2195 53.6275 41.0565 53.8876 40.945C53.9153 40.9697 53.9704 41.0184 53.9961 41.0439C53.9746 40.8732 53.9092 40.7122 53.8744 40.5454C53.8406 40.4132 53.9604 40.3178 54.0496 40.2448C54.1202 40.136 54.2708 40.1178 54.3335 39.9995C54.4822 40.0792 54.5931 40.2126 54.7093 40.3289C54.7465 40.3593 54.7803 40.3869 54.8157 40.4174C54.9178 40.4924 55.0153 40.573 55.109 40.6586C55.1441 40.6903 55.1777 40.7228 55.2127 40.7593C55.261 40.7945 55.309 40.8309 55.3585 40.8659C55.3732 40.8846 55.4022 40.9226 55.4174 40.9415C55.4595 40.9701 55.4968 41.0048 55.5285 41.0448L55.6531 41.116C55.6674 41.1335 55.6974 41.168 55.7118 41.1854C55.7608 41.227 55.807 41.2721 55.8502 41.3195C55.9029 41.3768 55.9596 41.431 56.0194 41.4804C56.049 41.5326 56.0791 41.5851 56.1096 41.6382C56.0822 41.9014 55.8422 42.0571 55.6763 42.2458Z" fill="#111827"/>
</g>
</g>
</g>
</g>
<mask id="mask55_40_8549" style="mask-type:luminance" maskUnits="userSpaceOnUse" x="56" y="49" width="2" height="1">
<path d="M56.9644 49.542L57.2577 49.6215L57.1785 49.9149L56.8852 49.8354L56.9644 49.542Z" fill="white"/>
</mask>
<g mask="url(#mask55_40_8549)">
<mask id="mask56_40_8549" style="mask-type:luminance" maskUnits="userSpaceOnUse" x="17" y="17" width="51" height="51">
<path d="M17.4813 36.0745L49.7833 17.5299L67.9483 49.1697L35.6462 67.7149L17.4813 36.0745Z" fill="white"/>
</mask>
<g mask="url(#mask56_40_8549)">
<mask id="mask57_40_8549" style="mask-type:luminance" maskUnits="userSpaceOnUse" x="17" y="17" width="51" height="51">
<path d="M49.8112 17.5133L17.509 36.0585L35.6745 67.699L67.976 49.1536L49.8112 17.5133Z" fill="white"/>
</mask>
<g mask="url(#mask57_40_8549)">
<mask id="mask58_40_8549" style="mask-type:luminance" maskUnits="userSpaceOnUse" x="17" y="17" width="51" height="51">
<path d="M49.8112 17.5133L17.509 36.0585L35.6745 67.699L67.976 49.1536L49.8112 17.5133Z" fill="white"/>
</mask>
<g mask="url(#mask58_40_8549)">
<path d="M57.2154 49.6825C57.1757 49.7204 57.134 49.7564 57.0914 49.7934C57.0755 49.7658 57.0472 49.7089 57.0326 49.681C57.0489 49.6891 57.0815 49.7047 57.0984 49.7129L57.2154 49.6825Z" fill="#111827"/>
</g>
</g>
</g>
</g>
</g>
</g>
</g>
</svg>
